# Blender v2.78 (sub 0) OBJ File: ''
# www.blender.org
mtllib halfSphere180.mtl
o Sphere
v 0.000000 -0.500000 -0.000000
v 0.000000 0.500000 0.000000
v 0.000000 0.490393 0.097545
v 0.000000 0.461940 0.191342
v 0.000000 0.415735 0.277785
v 0.000000 0.353553 0.353553
v 0.000000 0.277785 0.415735
v 0.000000 0.191342 0.461940
v 0.000000 0.097545 0.490392
v 0.000000 0.000000 0.500000
v 0.000000 -0.097545 0.490392
v 0.000000 -0.191342 0.461940
v 0.000000 -0.277785 0.415735
v 0.000000 -0.353553 0.353553
v 0.000000 -0.415735 0.277785
v 0.000000 -0.461940 0.191342
v 0.000000 -0.490393 0.097545
v -0.019030 0.490393 0.095671
v -0.037329 0.461940 0.187665
v -0.054193 0.415735 0.272448
v -0.068975 0.353553 0.346760
v -0.081106 0.277785 0.407746
v -0.090120 0.191342 0.453064
v -0.095671 0.097545 0.480970
v -0.097545 0.000000 0.490393
v -0.095671 -0.097545 0.480970
v -0.090120 -0.191342 0.453064
v -0.081106 -0.277785 0.407746
v -0.068975 -0.353553 0.346760
v -0.054193 -0.415735 0.272447
v -0.037329 -0.461940 0.187665
v -0.019030 -0.490393 0.095671
v -0.037329 0.490393 0.090120
v -0.073223 0.461940 0.176777
v -0.106304 0.415735 0.256640
v -0.135299 0.353553 0.326641
v -0.159095 0.277785 0.384089
v -0.176777 0.191342 0.426777
v -0.187665 0.097545 0.453063
v -0.191342 0.000000 0.461940
v -0.187665 -0.097545 0.453063
v -0.176777 -0.191342 0.426777
v -0.159095 -0.277785 0.384089
v -0.135299 -0.353553 0.326641
v -0.106304 -0.415735 0.256640
v -0.073223 -0.461940 0.176777
v -0.037329 -0.490393 0.090120
v -0.054193 0.490393 0.081106
v -0.106304 0.461940 0.159095
v -0.154329 0.415735 0.230970
v -0.196424 0.353553 0.293969
v -0.230970 0.277785 0.345671
v -0.256640 0.191342 0.384089
v -0.272447 0.097545 0.407746
v -0.277785 0.000000 0.415735
v -0.272447 -0.097545 0.407746
v -0.256640 -0.191342 0.384089
v -0.230970 -0.277785 0.345671
v -0.196424 -0.353553 0.293969
v -0.154329 -0.415735 0.230970
v -0.106304 -0.461940 0.159095
v -0.054193 -0.490393 0.081106
v -0.068975 0.490393 0.068975
v -0.135299 0.461940 0.135299
v -0.196424 0.415735 0.196424
v -0.250000 0.353553 0.250000
v -0.293969 0.277785 0.293969
v -0.326641 0.191342 0.326641
v -0.346760 0.097545 0.346760
v -0.353553 0.000000 0.353553
v -0.346760 -0.097545 0.346760
v -0.326641 -0.191342 0.326641
v -0.293969 -0.277785 0.293969
v -0.250000 -0.353553 0.250000
v -0.196424 -0.415735 0.196424
v -0.135299 -0.461940 0.135299
v -0.068975 -0.490393 0.068975
v -0.081106 0.490393 0.054193
v -0.159095 0.461940 0.106304
v -0.230970 0.415735 0.154329
v -0.293969 0.353553 0.196424
v -0.345671 0.277785 0.230970
v -0.384089 0.191342 0.256640
v -0.407746 0.097545 0.272447
v -0.415735 0.000000 0.277785
v -0.407746 -0.097545 0.272447
v -0.384089 -0.191342 0.256640
v -0.345671 -0.277785 0.230970
v -0.293969 -0.353553 0.196424
v -0.230970 -0.415735 0.154329
v -0.159095 -0.461940 0.106304
v -0.081106 -0.490393 0.054193
v -0.090120 0.490393 0.037329
v -0.176776 0.461940 0.073223
v -0.256640 0.415735 0.106304
v -0.326641 0.353553 0.135299
v -0.384089 0.277785 0.159095
v -0.426776 0.191342 0.176777
v -0.453063 0.097545 0.187665
v -0.461939 0.000000 0.191342
v -0.453063 -0.097545 0.187665
v -0.426776 -0.191342 0.176777
v -0.384089 -0.277785 0.159095
v -0.326641 -0.353553 0.135299
v -0.256640 -0.415735 0.106304
v -0.176776 -0.461940 0.073223
v -0.090120 -0.490393 0.037329
v -0.095671 0.490393 0.019030
v -0.187665 0.461940 0.037329
v -0.272447 0.415735 0.054193
v -0.346760 0.353553 0.068975
v -0.407746 0.277785 0.081106
v -0.453063 0.191342 0.090120
v -0.480969 0.097545 0.095671
v -0.490392 0.000000 0.097545
v -0.480969 -0.097545 0.095671
v -0.453063 -0.191342 0.090120
v -0.407746 -0.277785 0.081106
v -0.346760 -0.353553 0.068975
v -0.272447 -0.415735 0.054193
v -0.187665 -0.461940 0.037329
v -0.095671 -0.490393 0.019030
v -0.097545 0.490393 -0.000000
v -0.191341 0.461940 -0.000000
v -0.277785 0.415735 -0.000000
v -0.353553 0.353553 -0.000000
v -0.415734 0.277785 -0.000000
v -0.461940 0.191342 -0.000000
v -0.490392 0.097545 -0.000000
v -0.500000 0.000000 -0.000000
v -0.490392 -0.097545 -0.000000
v -0.461940 -0.191342 -0.000000
v -0.415734 -0.277785 -0.000000
v -0.353553 -0.353553 -0.000000
v -0.277785 -0.415735 -0.000000
v -0.191341 -0.461940 -0.000000
v -0.097545 -0.490393 -0.000000
vn -0.0980 0.0000 0.9952
vn -0.0962 0.1930 0.9764
vn -0.1914 0.1939 0.9622
vn -0.1951 0.0000 0.9808
vn -0.0198 0.9794 0.2009
vn -0.0628 0.9960 0.0628
vn -0.0392 0.9796 0.1971
vn -0.0628 -0.9960 0.0628
vn -0.0198 -0.9794 0.2009
vn -0.0392 -0.9796 0.1971
vn -0.0962 -0.1930 0.9764
vn -0.1914 -0.1939 0.9622
vn -0.0381 0.9210 0.3876
vn -0.0757 0.9217 0.3804
vn -0.0907 -0.3789 0.9209
vn -0.1804 -0.3805 0.9070
vn -0.0550 0.8274 0.5589
vn -0.1092 0.8286 0.5490
vn -0.0818 -0.5509 0.8305
vn -0.1626 -0.5528 0.8173
vn -0.0698 0.7023 0.7084
vn -0.1385 0.7040 0.6965
vn -0.0698 -0.7023 0.7084
vn -0.1385 -0.7040 0.6965
vn -0.0818 0.5509 0.8305
vn -0.1626 0.5528 0.8173
vn -0.0550 -0.8274 0.5589
vn -0.1092 -0.8286 0.5490
vn -0.0907 0.3789 0.9209
vn -0.1804 0.3805 0.9070
vn -0.0381 -0.9210 0.3876
vn -0.0757 -0.9217 0.3804
vn -0.3189 -0.5528 0.7699
vn -0.2717 -0.7040 0.6561
vn -0.2717 0.7040 0.6561
vn -0.3189 0.5528 0.7699
vn -0.2142 -0.8286 0.5171
vn -0.3539 0.3805 0.8544
vn -0.1484 -0.9217 0.3583
vn -0.3754 0.1939 0.9063
vn -0.0769 -0.9796 0.1856
vn -0.3827 0.0000 0.9239
vn -0.0769 0.9796 0.1856
vn -0.3754 -0.1939 0.9063
vn -0.1484 0.9217 0.3583
vn -0.3539 -0.3805 0.8544
vn -0.2142 0.8286 0.5171
vn -0.1116 -0.9796 0.1671
vn -0.5556 0.0000 0.8314
vn -0.5450 -0.1939 0.8157
vn -0.1116 0.9796 0.1671
vn -0.2155 0.9217 0.3225
vn -0.5137 -0.3805 0.7689
vn -0.3110 0.8286 0.4654
vn -0.4630 -0.5528 0.6929
vn -0.3945 0.7040 0.5904
vn -0.3945 -0.7040 0.5904
vn -0.4630 0.5528 0.6929
vn -0.3110 -0.8286 0.4654
vn -0.5137 0.3805 0.7689
vn -0.2155 -0.9217 0.3225
vn -0.5450 0.1939 0.8157
vn -0.5021 -0.7040 0.5021
vn -0.3958 -0.8286 0.3958
vn -0.5893 0.5528 0.5893
vn -0.6539 0.3805 0.6539
vn -0.2743 -0.9217 0.2743
vn -0.6937 0.1939 0.6937
vn -0.1421 -0.9796 0.1421
vn -0.7071 0.0000 0.7071
vn -0.1421 0.9796 0.1421
vn -0.6937 -0.1939 0.6937
vn -0.2743 0.9217 0.2743
vn -0.6539 -0.3805 0.6539
vn -0.3958 0.8286 0.3958
vn -0.5893 -0.5528 0.5893
vn -0.5021 0.7040 0.5021
vn -0.1671 0.9796 0.1116
vn -0.3225 0.9217 0.2155
vn -0.8157 -0.1939 0.5450
vn -0.7689 -0.3805 0.5137
vn -0.4654 0.8286 0.3110
vn -0.6929 -0.5528 0.4630
vn -0.5904 0.7040 0.3945
vn -0.5904 -0.7040 0.3945
vn -0.6929 0.5528 0.4630
vn -0.4654 -0.8286 0.3110
vn -0.7689 0.3805 0.5137
vn -0.3225 -0.9217 0.2155
vn -0.8157 0.1939 0.5450
vn -0.1671 -0.9796 0.1116
vn -0.8314 0.0000 0.5556
vn -0.7699 0.5528 0.3189
vn -0.8544 0.3805 0.3539
vn -0.5171 -0.8286 0.2142
vn -0.3583 -0.9217 0.1484
vn -0.9063 0.1939 0.3754
vn -0.1856 -0.9796 0.0769
vn -0.9239 0.0000 0.3827
vn -0.1856 0.9796 0.0769
vn -0.9063 -0.1939 0.3754
vn -0.3583 0.9217 0.1484
vn -0.8544 -0.3805 0.3539
vn -0.5171 0.8286 0.2142
vn -0.7699 -0.5528 0.3189
vn -0.6561 0.7040 0.2717
vn -0.6561 -0.7040 0.2717
vn -0.9622 -0.1939 0.1914
vn -0.9070 -0.3805 0.1804
vn -0.3804 0.9217 0.0757
vn -0.5490 0.8286 0.1092
vn -0.8173 -0.5528 0.1626
vn -0.6965 0.7040 0.1385
vn -0.6965 -0.7040 0.1385
vn -0.8173 0.5528 0.1626
vn -0.5490 -0.8286 0.1092
vn -0.9070 0.3805 0.1804
vn -0.3804 -0.9217 0.0757
vn -0.9622 0.1939 0.1914
vn -0.1971 -0.9796 0.0392
vn -0.9808 0.0000 0.1951
vn -0.1971 0.9796 0.0392
vn -0.5589 -0.8274 0.0550
vn -0.3876 -0.9210 0.0381
vn -0.9209 0.3789 0.0907
vn -0.9764 0.1930 0.0962
vn -0.2009 -0.9794 0.0198
vn -0.9952 0.0000 0.0980
vn -0.2009 0.9794 0.0198
vn -0.9764 -0.1930 0.0962
vn -0.3876 0.9210 0.0381
vn -0.9209 -0.3789 0.0907
vn -0.5589 0.8274 0.0550
vn -0.8305 -0.5509 0.0818
vn -0.7084 0.7023 0.0698
vn -0.7084 -0.7023 0.0698
vn -0.8305 0.5509 0.0818
usemtl None
s 1
f 10//1 9//2 24//3 25//4
f 3//5 2//6 18//7
f 1//8 17//9 32//10
f 11//11 10//1 25//4 26//12
f 4//13 3//5 18//7 19//14
f 12//15 11//11 26//12 27//16
f 5//17 4//13 19//14 20//18
f 13//19 12//15 27//16 28//20
f 6//21 5//17 20//18 21//22
f 14//23 13//19 28//20 29//24
f 7//25 6//21 21//22 22//26
f 15//27 14//23 29//24 30//28
f 8//29 7//25 22//26 23//30
f 16//31 15//27 30//28 31//32
f 9//2 8//29 23//30 24//3
f 17//9 16//31 31//32 32//10
f 29//24 28//20 43//33 44//34
f 22//26 21//22 36//35 37//36
f 30//28 29//24 44//34 45//37
f 23//30 22//26 37//36 38//38
f 31//32 30//28 45//37 46//39
f 24//3 23//30 38//38 39//40
f 32//10 31//32 46//39 47//41
f 25//4 24//3 39//40 40//42
f 18//7 2//6 33//43
f 1//8 32//10 47//41
f 26//12 25//4 40//42 41//44
f 19//14 18//7 33//43 34//45
f 27//16 26//12 41//44 42//46
f 20//18 19//14 34//45 35//47
f 28//20 27//16 42//46 43//33
f 21//22 20//18 35//47 36//35
f 1//8 47//41 62//48
f 41//44 40//42 55//49 56//50
f 34//45 33//43 48//51 49//52
f 42//46 41//44 56//50 57//53
f 35//47 34//45 49//52 50//54
f 43//33 42//46 57//53 58//55
f 36//35 35//47 50//54 51//56
f 44//34 43//33 58//55 59//57
f 37//36 36//35 51//56 52//58
f 45//37 44//34 59//57 60//59
f 38//38 37//36 52//58 53//60
f 46//39 45//37 60//59 61//61
f 39//40 38//38 53//60 54//62
f 47//41 46//39 61//61 62//48
f 40//42 39//40 54//62 55//49
f 33//43 2//6 48//51
f 60//59 59//57 74//63 75//64
f 53//60 52//58 67//65 68//66
f 61//61 60//59 75//64 76//67
f 54//62 53//60 68//66 69//68
f 62//48 61//61 76//67 77//69
f 55//49 54//62 69//68 70//70
f 48//51 2//6 63//71
f 1//8 62//48 77//69
f 56//50 55//49 70//70 71//72
f 49//52 48//51 63//71 64//73
f 57//53 56//50 71//72 72//74
f 50//54 49//52 64//73 65//75
f 58//55 57//53 72//74 73//76
f 51//56 50//54 65//75 66//77
f 59//57 58//55 73//76 74//63
f 52//58 51//56 66//77 67//65
f 64//73 63//71 78//78 79//79
f 72//74 71//72 86//80 87//81
f 65//75 64//73 79//79 80//82
f 73//76 72//74 87//81 88//83
f 66//77 65//75 80//82 81//84
f 74//63 73//76 88//83 89//85
f 67//65 66//77 81//84 82//86
f 75//64 74//63 89//85 90//87
f 68//66 67//65 82//86 83//88
f 76//67 75//64 90//87 91//89
f 69//68 68//66 83//88 84//90
f 77//69 76//67 91//89 92//91
f 70//70 69//68 84//90 85//92
f 63//71 2//6 78//78
f 1//8 77//69 92//91
f 71//72 70//70 85//92 86//80
f 83//88 82//86 97//93 98//94
f 91//89 90//87 105//95 106//96
f 84//90 83//88 98//94 99//97
f 92//91 91//89 106//96 107//98
f 85//92 84//90 99//97 100//99
f 78//78 2//6 93//100
f 1//8 92//91 107//98
f 86//80 85//92 100//99 101//101
f 79//79 78//78 93//100 94//102
f 87//81 86//80 101//101 102//103
f 80//82 79//79 94//102 95//104
f 88//83 87//81 102//103 103//105
f 81//84 80//82 95//104 96//106
f 89//85 88//83 103//105 104//107
f 82//86 81//84 96//106 97//93
f 90//87 89//85 104//107 105//95
f 102//103 101//101 116//108 117//109
f 95//104 94//102 109//110 110//111
f 103//105 102//103 117//109 118//112
f 96//106 95//104 110//111 111//113
f 104//107 103//105 118//112 119//114
f 97//93 96//106 111//113 112//115
f 105//95 104//107 119//114 120//116
f 98//94 97//93 112//115 113//117
f 106//96 105//95 120//116 121//118
f 99//97 98//94 113//117 114//119
f 107//98 106//96 121//118 122//120
f 100//99 99//97 114//119 115//121
f 93//100 2//6 108//122
f 1//8 107//98 122//120
f 101//101 100//99 115//121 116//108
f 94//102 93//100 108//122 109//110
f 121//118 120//116 135//123 136//124
f 114//119 113//117 128//125 129//126
f 122//120 121//118 136//124 137//127
f 115//121 114//119 129//126 130//128
f 108//122 2//6 123//129
f 1//8 122//120 137//127
f 116//108 115//121 130//128 131//130
f 109//110 108//122 123//129 124//131
f 117//109 116//108 131//130 132//132
f 110//111 109//110 124//131 125//133
f 118//112 117//109 132//132 133//134
f 111//113 110//111 125//133 126//135
f 119//114 118//112 133//134 134//136
f 112//115 111//113 126//135 127//137
f 120//116 119//114 134//136 135//123
f 113//117 112//115 127//137 128//125
